<?xml version="1.0" encoding="utf-8"?>
<!-- Generator: Adobe Illustrator 22.0.0, SVG Export Plug-In . SVG Version: 6.00 Build 0)  -->
<svg version="1.1" id="Calque_1" xmlns="http://www.w3.org/2000/svg" xmlns:xlink="http://www.w3.org/1999/xlink" x="0px" y="0px"
	 viewBox="0 0 400 400" style="enable-background:new 0 0 400 400;" xml:space="preserve">
<style type="text/css">
	.st0{fill:#FFFFFF;stroke:#FFFFFF;stroke-width:6;stroke-miterlimit:10;}
</style>
<path d="M354,400H46c-25.4,0-46-20.6-46-46V46C0,20.6,20.6,0,46,0h308c25.4,0,46,20.6,46,46v308C400,379.4,379.4,400,354,400z"/>
<title>logo-blanc</title>
<g>
	<path class="st0" d="M200.2,283.5c-45.9,0-83.2-37.1-83.4-83c-0.3-45.4,37.3-83.3,83-83.5s83.1,37.3,83.3,83.2
		c0.3,45.8-36.7,83.1-82.5,83.4C200.4,283.5,200.3,283.5,200.2,283.5z M200,273.1c40.1,0,72.7-32.6,72.6-72.7c0-0.1,0-0.2,0-0.3
		c-0.1-39.9-32.6-72.6-72.2-72.7c-40.3-0.1-73,32.4-73.1,72.7C127.2,240.3,159.7,273,200,273.1z"/>
	<path class="st0" d="M367.7,200.2c-0.4,43-14.6,80.7-43.3,112.9c-1.7,1.9-3.5,3.7-5.3,5.4c-2,1.9-5.2,1.8-7.1-0.2
		c-1.7-1.8-1.8-4.6-0.3-6.5c1.2-1.6,2.6-2.9,3.9-4.4c56.1-61.7,55.8-153.7-0.9-215c-0.8-0.8-1.6-1.6-2.4-2.4
		c-2.6-2.6-4.7-5.6-1.6-8.8c3.6-3.8,6.6-0.8,9.3,1.9c22.5,22.9,37.9,51.9,44.2,83.4C366.7,177.5,367.9,188.8,367.7,200.2z"/>
	<path class="st0" d="M32.2,200.3c0.6-43.3,15-81.3,44-113.5c1.6-1.9,3.5-3.7,5.5-5.2c2.3-1.5,5.3-0.8,6.8,1.5
		c1.1,1.7,1,3.8-0.1,5.4C87,90.3,85.6,92,84,93.6c-55.4,60.5-55.3,153.3,0.2,213.7c1.5,1.7,3.1,3.2,4.6,4.9c2.2,2.4,2.7,5.2,0.1,7.5
		s-5.2,1.8-7.6-0.5c-1.8-1.8-3.6-3.6-5.3-5.4C47.1,281.5,32.8,243.6,32.2,200.3z"/>
	<path class="st0" d="M200,70.7c58.4,0.7,109.2,40.1,124.3,96.5c0.4,1.6,0.8,3.3,1.1,5c0.5,3.1-0.1,5.9-3.5,6.7
		c-3.9,1-5.6-1.6-6.6-4.9c-0.4-1.4-0.6-2.8-0.9-4.1c-15.8-59.6-74.7-97.2-135.5-86.4c-4,0.7-8.5,2.4-9.8-3c-1.5-6.3,4.2-6.5,8.2-7.1
		C184.8,72.1,192.4,71.5,200,70.7z"/>
	<path class="st0" d="M201.7,329.3c-60.2,0-112.3-40.3-126.2-96.4c-1-3.9-3.8-8.9,2.3-10.8s6.5,3.8,7.6,7.7
		C102.5,291,157,326.4,220,317.3c0.8-0.1,1.7-0.2,2.5-0.4c3.8-0.7,8-1.1,8.6,4s-3.7,5.7-7.3,6.4
		C216.5,328.7,209.1,329.4,201.7,329.3z"/>
	<path class="st0" d="M194.8,258.1c-16.8-0.5-34-9.9-45-29.2s-10.7-38.7,0-58.1c1.2-2.1,2-5.3,5-5.1s2.2,3.5,2.9,5.5
		c5.7,15.5,21.8,22.9,36.3,16.5c14.8-6.5,20.2-23.8,12.1-38.6c-1-1.8-3.8-3.6-2.1-5.9c1.5-2,4.2-0.9,6.4-0.5
		c29.8,5.2,49.9,32.5,47.1,63.7C255,235.4,229.7,258,194.8,258.1z"/>
</g>
</svg>
