<svg id="Calque_1" data-name="Calque 1" xmlns="http://www.w3.org/2000/svg" viewBox="0 0 400 400"><title>logo-blanc</title><path d="M201.84,221.28a56.94,56.94,0,0,1-57-56.69c-.23-31.05,25.48-56.94,56.67-57.07S258.3,133,258.39,164.33A56.64,56.64,0,0,1,201.84,221.28Zm-.13-7.08a49.66,49.66,0,0,0,49.62-49.89c-.09-27.26-22.27-49.6-49.34-49.69a49.79,49.79,0,1,0-.28,99.58Z" style="fill:#fff"/><path d="M316.32,164.36c-.3,29.37-10,55.16-29.59,77.14a42.72,42.72,0,0,1-3.65,3.72,3.43,3.43,0,0,1-5.05-4.61c.81-1.07,1.78-2,2.69-3,38.36-42.12,38.1-105-.61-146.91-.52-.56-1.06-1.12-1.61-1.67-1.76-1.76-3.18-3.83-1.07-6,2.49-2.58,4.53-.56,6.33,1.3a113,113,0,0,1,30.22,57A104.11,104.11,0,0,1,316.32,164.36Z" style="fill:#fff"/><path d="M87.12,164.43c.36-29.58,10.2-55.5,30-77.53a22.18,22.18,0,0,1,3.76-3.56,3.37,3.37,0,0,1,4.61,4.72,37.14,37.14,0,0,1-3,3.5,108,108,0,0,0,.16,146c1,1.14,2.14,2.22,3.17,3.37,1.48,1.67,1.84,3.52.07,5.11s-3.55,1.2-5.16-.35c-1.24-1.21-2.48-2.43-3.64-3.72C97.28,219.94,87.47,194,87.12,164.43Z" style="fill:#fff"/><path d="M201.74,75.88a89,89,0,0,1,84.95,65.91c.3,1.12.57,2.25.76,3.39.34,2.11-.07,4-2.4,4.6-2.68.68-3.84-1.12-4.51-3.33-.28-.93-.39-1.9-.64-2.83a81.08,81.08,0,0,0-92.54-59c-2.71.46-5.84,1.63-6.71-2.08-1-4.3,2.88-4.45,5.57-4.88C191.36,76.86,196.56,76.45,201.74,75.88Z" style="fill:#fff"/><path d="M202.85,252.61c-41.12,0-76.71-27.51-86.22-65.89-.66-2.66-2.57-6.08,1.55-7.36s4.44,2.6,5.18,5.25c11.73,41.81,49,66,92,59.75.57-.09,1.15-.13,1.72-.24,2.61-.47,5.46-.77,5.88,2.7s-2.53,3.91-5,4.35A74.57,74.57,0,0,1,202.85,252.61Z" style="fill:#fff"/><path d="M156.12,281.49a15.78,15.78,0,0,1,6.74,1.59c1.68.72,3.24,1.68,2.58,3.86s-2.55,2.11-4.28,1.65c-4-1.06-7.95-1.72-11.77.58-1.86,1.13-3.71,2.46-3.39,4.91.28,2.21,2.3,3,4.15,3.54,3.32,1,6.8,1.54,10,2.75,6.16,2.31,8.9,7.17,7.84,13.13-.93,5.21-5.73,9.35-11.44,9.79A20.86,20.86,0,0,1,142,318.81c-1.81-1.39-4.16-3.07-2.09-5.64,1.93-2.38,3.76-.42,5.39.94a15.05,15.05,0,0,0,10.23,3.31c3.51,0,6-1.69,6.68-5.2s-1.32-5.53-4.31-6.63a54.55,54.55,0,0,0-6.69-1.81c-7.6-1.71-11.36-5.19-11.16-10.41s5.06-9.95,11.53-11.22C153.06,281.85,154.6,281.7,156.12,281.49Z" style="fill:#fff"/><path d="M28.29,281.15H40.44c1.87,0,3.67.33,3.77,2.6a2.84,2.84,0,0,1-3.41,3c-4.45-.45-4.44,2.26-4.39,5.4.11,6.36.26,12.74,0,19.09-.26,6.67-4.3,11.11-10.79,12.54-5.66,1.26-10.45-1.3-13.67-7.25-1-1.77-2-3.69.2-5s3.72.16,4.71,2c1.85,3.34,4.21,5.64,8.34,4.47,4.53-1.29,5.56-4.89,5.55-9.05,0-6-.13-12,0-17.94.07-3.06-1.15-4.07-4.11-3.88-3.46.22-6.94.11-10.41.1-2.11,0-4-.57-3.9-3.14.13-2.17,1.91-2.68,3.78-2.69,4.06,0,8.11,0,12.16,0Z" style="fill:#fff"/><path d="M292.28,305.84c0-3.09,0-6.18,0-9.27,0-4.56,0-4.53,4.69-4,.48.06,1.07-.38,1.54-.7,5.6-3.8,10.84-3.64,15.43,1.61,1.61,1.85,2.25.3,3.09-.57,3.68-3.79,8-4.51,12.73-2.53,5,2.1,6.17,6.52,6.18,11.44,0,5.61,0,11.21,0,16.81,0,1.52.16,3.37-2.19,3.18-2-.15-1.65-1.86-1.67-3.12-.07-5.6,0-11.21-.09-16.81-.1-4.9-1.58-8.84-7.5-8.95-5-.09-8.08,3.28-8.21,9.09-.12,5.6,0,11.2-.06,16.81,0,1.28.28,2.9-1.73,3.05-2.36.18-2.28-1.58-2.29-3.12-.06-5.8,0-11.59-.13-17.38-.12-4.74-1.75-8.39-7.34-8.44-4.58-.05-8,3.34-8.22,8.63-.24,5.59-.06,11.2-.12,16.8,0,1.45.39,3.38-1.92,3.49s-2.12-1.81-2.14-3.28C292.25,314.34,292.29,310.09,292.28,305.84Z" style="fill:#fff"/><path d="M278.73,317.71c-3.65,3.22-7.86,5.48-12.92,5.15-4.78-.3-8.8-2.2-9.65-7.45s2-8.79,6.86-10.66c4.06-1.56,8.34-1.5,12.57-1.28,3.77.2,4.13-1.73,3.55-4.64s-2.32-5-5.19-5.56c-4.28-.86-8.54-.87-11.61,3-1.16,1.47-2.18,4.09-4.27,2.29-1.82-1.56.31-3.54,1.46-4.81,4.42-4.87,10.19-5.18,16-3.74s7.77,5.95,7.93,11.4c.16,5.2.15,10.41,0,15.6-.05,1.7,1.15,4.3-1.68,4.8C278.68,322.38,280.43,318.8,278.73,317.71Zm-5.68-11.08c-3.17.22-6.07,0-8.8,1.3-3,1.39-4.5,3.63-4,6.89s3,4.33,5.78,4.69c3.88.5,7.17-1,10.05-3.47,2.32-2,4-4.58,3.13-7.61C278.19,304.84,274.85,307.52,273.05,306.63Z" style="fill:#fff"/><path d="M354.4,281.13a14.82,14.82,0,0,1,2.31,0c2.47.4,6.1-1.41,7.05,2.08,1,3.77-2.64,3.23-4.89,3.9-1.75.51-1.29,2.17-1.3,3.43,0,7.13,0,14.26,0,21.39,0,2.34.26,4.19,3.37,4,1.94-.09,3.46.88,3.17,3.13-.24,1.84-1.74,2.48-3.38,2.51-4,.08-8.09.1-12.13,0-1.85-.05-3.53-.71-3.51-3a2.59,2.59,0,0,1,3.1-2.65c3.9.31,3.74-2.2,3.71-4.84-.06-5.59,0-11.18,0-16.76,0-3.59,1.34-8.1-4.93-8-1.23,0-1.93-1.24-1.92-2.51a2.47,2.47,0,0,1,2.48-2.65c2.31-.12,4.62,0,6.93,0Z" style="fill:#fff"/><path d="M236.22,289.45c7.93.25,13.87,6.8,13.93,14.92,0,3.08-1.75,2.88-3.71,2.88-6,0-12,.12-18,0-3.25-.08-4.1,1-3.11,4.11,1.34,4.25,3.8,7.21,8.28,7.94s8.05-.58,10.53-4.46c1-1.57,1.93-4.37,4-2.9,2.36,1.64-.09,3.83-1.17,5.37-3.35,4.76-8.26,6.21-13.79,5.43-8.64-1.21-13.34-8.64-12.35-19.18C221.72,294.85,227.89,289.17,236.22,289.45ZM235.41,304c1.92,0,3.85-.15,5.75,0,5.42.49,5.22-2.19,3.45-5.87-1.66-3.46-4.49-5-8.25-5.26-4.24-.26-7.5,1.25-9.6,5-.93,1.65-2.33,3.58-1.37,5.29s3.17.71,4.84.8S233.68,304,235.41,304Z" style="fill:#fff"/><path d="M75.73,306.82c0,4.05,0,8.1,0,12.15,0,1.64-1.35,4.06-2.27,2.77-3.28-4.64-5.45-.3-7.85.49-7.63,2.5-14.51-1.14-15.37-9.08-.7-6.49-.35-13.09-.43-19.65,0-1.35,0-2.88,1.91-2.95,2.36-.1,2.15,1.76,2.16,3.26.05,5.21,0,10.42.06,15.63.1,6.63,2.64,9.8,7.85,10s9.55-4.05,9.8-10c.21-4.82,0-9.65.12-14.47.06-1.65-1-4.51,2.09-4.35,2.9.15,1.83,2.91,1.9,4.61C75.85,299.09,75.74,303,75.73,306.82Z" style="fill:#fff"/><path d="M95.76,289.43c4.46,0,8.43,1.11,10.82,5.3.73,1.29,2,3,.34,4.09s-2.62-.28-3.45-1.8c-2.67-4.92-7.22-4.52-11.66-3.63a4.51,4.51,0,0,0-4,4.33c-.09,2.34,1.59,3.51,3.41,4.17,3.61,1.3,7.35,2.27,11,3.51,4.19,1.42,7.08,3.89,6.65,8.85s-3.64,7.27-8.25,8.2c-8,1.64-14.7-.82-16.86-6.42-.53-1.37-1.61-3.15.24-4.06s2.43.84,3.22,2.26a10.88,10.88,0,0,0,14.88,3.94,5.15,5.15,0,0,0,2.8-4.72,4.58,4.58,0,0,0-3.25-4.36c-2.88-1.06-5.85-1.87-8.78-2.81-4.67-1.49-9.63-2.85-9.09-9.29C84.17,292.29,89,289.37,95.76,289.43Z" style="fill:#fff"/><path d="M127.74,322c-5,.2-7.61-2-7.59-7.16s0-10,0-15c0-3.27.69-6.87-4.61-6.21a1.64,1.64,0,0,1-2-1.58,1.53,1.53,0,0,1,1.92-1.59c4.55.58,5.06-2.05,4.68-5.58-.19-1.81,0-4,2.23-3.95,2.76,0,1.61,2.68,1.48,4-.44,4.26,1,6.17,5.41,5.53,1.05-.15,2.56-.2,2.62,1.43.07,2-1.65,2-2.9,1.82-4.84-.66-5.26,2.1-5.08,5.89.23,4.61.1,9.24,0,13.86,0,3.09.7,5.37,4.46,5.17,1.33-.06,3.12-.13,3,1.76C131.24,322.59,129.15,321.8,127.74,322Z" style="fill:#fff"/><path d="M187.55,322c-4.85.09-7.26-2.18-7.24-7,0-5.39-.07-10.79,0-16.19,0-2.88.17-5.55-4-5.17-1.1.1-2.52,0-2.63-1.56s1.26-1.84,2.39-1.7c4.63.6,4.3-2.49,4.21-5.47-.06-1.77-.08-3.95,2.15-4,2.95-.13,1.65,2.57,1.57,3.82-.28,4,.47,6.43,5.21,5.7,1.21-.19,3-.29,2.88,1.76-.11,1.48-1.6,1.65-2.69,1.48-5.12-.79-5.62,2.12-5.34,6.12.23,3.45,0,6.93.06,10.4.07,4.05-1.35,9.13,5.76,8.49a1.42,1.42,0,0,1,1.45,2C190.74,322.81,188.82,321.67,187.55,322Z" style="fill:#fff"/><path d="M384.9,322c-5.16.17-7.59-2.1-7.6-6.9,0-5.4-.08-10.8,0-16.2,0-2.85.2-5.58-4-5.22-1.12.1-2.48-.08-2.5-1.68s1.37-1.71,2.48-1.59c4.22.46,4.1-2.31,4-5.16-.07-2,0-4.46,2.47-4.38s1.44,2.73,1.36,4.12c-.21,3.66.45,6,4.9,5.44,1.16-.15,3-.52,3.15,1.49s-1.76,1.91-2.95,1.74c-4.88-.7-5.26,2.11-5.05,5.85s.05,7.71,0,11.57-.84,8.24,5.46,7.6a1.44,1.44,0,0,1,1.64,1.82C387.84,322.82,385.8,321.54,384.9,322Z" style="fill:#fff"/><path d="M199.19,305.81c0-4.25,0-8.5,0-12.75,0-2.38,2.29-3.73,3-2.16,2.08,4.34,3.36,1.18,5,.09a7.6,7.6,0,0,1,4.88-1.52c1.93.18,5-.9,5,2.3,0,3.41-2.89,1.35-4.45,1.49-5.27.47-8.87,4.22-9.33,10.7-.35,4.81-.09,9.65-.19,14.48,0,1.42.47,3.39-1.93,3.45s-2-1.91-2-3.34C199.15,314.3,199.18,310.06,199.19,305.81Z" style="fill:#fff"/><path d="M198.18,203.94c-11.5-.37-23.23-6.79-30.71-19.93s-7.32-26.47,0-39.68c.8-1.45,1.37-3.65,3.4-3.49s1.48,2.42,2,3.78c3.86,10.6,14.88,15.62,24.8,11.25,10.14-4.47,13.81-16.25,8.24-26.36-.7-1.26-2.6-2.44-1.44-4,1-1.36,2.88-.6,4.37-.34,20.33,3.57,34.08,22.17,32.2,43.54C239.3,188.42,222,203.9,198.18,203.94Z" style="fill:#fff"/></svg>