<?xml version="1.0" encoding="utf-8"?>
<!-- Generator: Adobe Illustrator 22.0.0, SVG Export Plug-In . SVG Version: 6.00 Build 0)  -->
<svg version="1.1" id="Calque_1" xmlns="http://www.w3.org/2000/svg" xmlns:xlink="http://www.w3.org/1999/xlink" x="0px" y="0px"
	 viewBox="0 0 416 76.1" style="enable-background:new 0 0 416 76.1;" xml:space="preserve">
<style type="text/css">
	.st0{fill:#FFFFFF;}
</style>
<g>
	<polygon class="st0" points="40,0 49.5,29.1 80,29.1 55.3,47 64.7,76.1 40,58.1 15.3,76.1 24.7,47 0,29.1 30.6,29.1 	"/>
	<polygon class="st0" points="124,0 133.5,29.1 164,29.1 139.3,47 148.7,76.1 124,58.1 99.3,76.1 108.7,47 84,29.1 114.6,29.1 	"/>
	<polygon class="st0" points="208,0 217.5,29.1 248,29.1 223.3,47 232.7,76.1 208,58.1 183.3,76.1 192.7,47 168,29.1 198.6,29.1 	
		"/>
	<polygon class="st0" points="292,0 301.5,29.1 332,29.1 307.3,47 316.7,76.1 292,58.1 267.3,76.1 276.7,47 252,29.1 282.6,29.1 	
		"/>
	<polygon class="st0" points="376,0 385.5,29.1 416,29.1 391.3,47 400.7,76.1 376,58.1 351.3,76.1 360.7,47 336,29.1 366.6,29.1 	
		"/>
</g>
</svg>
